<mxfile host="app.diagrams.net" modified="2024-03-27T11:42:02.209Z" agent="Mozilla/5.0 (Windows NT 10.0; Win64; x64) AppleWebKit/537.36 (KHTML, like Gecko) Chrome/122.0.0.0 Safari/537.36 Edg/122.0.0.0" etag="FzcNBzlAY6WaAH6gYP_C" version="24.2.0" type="device">
  <diagram name="Страница — 1" id="L-dOXPiKiARxFQmP7lSy">
    <mxGraphModel dx="488" dy="953" grid="0" gridSize="10" guides="1" tooltips="1" connect="1" arrows="1" fold="1" page="0" pageScale="1" pageWidth="827" pageHeight="1169" math="0" shadow="0">
      <root>
        <mxCell id="0" />
        <mxCell id="1" parent="0" />
        <mxCell id="gsGq_jREDuZbA5nUhP64-3" style="edgeStyle=none;curved=1;rounded=0;orthogonalLoop=1;jettySize=auto;html=1;fontSize=12;startSize=8;endSize=8;" edge="1" parent="1" source="gsGq_jREDuZbA5nUhP64-1" target="gsGq_jREDuZbA5nUhP64-2">
          <mxGeometry relative="1" as="geometry" />
        </mxCell>
        <mxCell id="gsGq_jREDuZbA5nUhP64-1" value="старт" style="ellipse;whiteSpace=wrap;html=1;" vertex="1" parent="1">
          <mxGeometry x="156" y="-38" width="120" height="58" as="geometry" />
        </mxCell>
        <mxCell id="gsGq_jREDuZbA5nUhP64-5" style="edgeStyle=none;curved=1;rounded=0;orthogonalLoop=1;jettySize=auto;html=1;entryX=0.5;entryY=0;entryDx=0;entryDy=0;fontSize=12;startSize=8;endSize=8;" edge="1" parent="1" source="gsGq_jREDuZbA5nUhP64-2" target="gsGq_jREDuZbA5nUhP64-4">
          <mxGeometry relative="1" as="geometry" />
        </mxCell>
        <mxCell id="gsGq_jREDuZbA5nUhP64-2" value="Исходный массив строк&lt;div&gt;&lt;br&gt;&lt;/div&gt;&lt;div&gt;Второй массив строк&lt;/div&gt;" style="shape=parallelogram;perimeter=parallelogramPerimeter;whiteSpace=wrap;html=1;fixedSize=1;" vertex="1" parent="1">
          <mxGeometry x="111" y="44" width="210" height="60" as="geometry" />
        </mxCell>
        <mxCell id="gsGq_jREDuZbA5nUhP64-7" style="edgeStyle=none;curved=1;rounded=0;orthogonalLoop=1;jettySize=auto;html=1;exitX=0.5;exitY=1;exitDx=0;exitDy=0;entryX=0.5;entryY=0;entryDx=0;entryDy=0;fontSize=12;startSize=8;endSize=8;" edge="1" parent="1" source="gsGq_jREDuZbA5nUhP64-4" target="gsGq_jREDuZbA5nUhP64-6">
          <mxGeometry relative="1" as="geometry" />
        </mxCell>
        <mxCell id="gsGq_jREDuZbA5nUhP64-4" value="Заполнить исходный массив строками" style="rounded=0;whiteSpace=wrap;html=1;" vertex="1" parent="1">
          <mxGeometry x="127.5" y="128" width="177" height="60" as="geometry" />
        </mxCell>
        <mxCell id="gsGq_jREDuZbA5nUhP64-9" style="edgeStyle=none;curved=1;rounded=0;orthogonalLoop=1;jettySize=auto;html=1;fontSize=12;startSize=8;endSize=8;" edge="1" parent="1" source="gsGq_jREDuZbA5nUhP64-6" target="gsGq_jREDuZbA5nUhP64-10">
          <mxGeometry relative="1" as="geometry">
            <mxPoint x="216" y="305" as="targetPoint" />
          </mxGeometry>
        </mxCell>
        <mxCell id="gsGq_jREDuZbA5nUhP64-6" value="Перебрать все строки исходного массива. Счетчик = 0. Итерации = длинна исходного массива" style="shape=hexagon;perimeter=hexagonPerimeter2;whiteSpace=wrap;html=1;fixedSize=1;" vertex="1" parent="1">
          <mxGeometry x="132.5" y="212" width="167" height="73" as="geometry" />
        </mxCell>
        <mxCell id="gsGq_jREDuZbA5nUhP64-12" style="edgeStyle=none;curved=1;rounded=0;orthogonalLoop=1;jettySize=auto;html=1;fontSize=12;startSize=8;endSize=8;" edge="1" parent="1" source="gsGq_jREDuZbA5nUhP64-10">
          <mxGeometry relative="1" as="geometry">
            <mxPoint x="218.5" y="396.0000305175781" as="targetPoint" />
          </mxGeometry>
        </mxCell>
        <mxCell id="gsGq_jREDuZbA5nUhP64-10" value="Сформировать новую строку, с длинной &amp;gt; 3&amp;nbsp;" style="rounded=0;whiteSpace=wrap;html=1;" vertex="1" parent="1">
          <mxGeometry x="120" y="309" width="197" height="60" as="geometry" />
        </mxCell>
        <mxCell id="gsGq_jREDuZbA5nUhP64-11" value="Добавить строку в новый массив" style="rounded=0;whiteSpace=wrap;html=1;" vertex="1" parent="1">
          <mxGeometry x="122.5" y="395" width="192" height="60" as="geometry" />
        </mxCell>
        <mxCell id="gsGq_jREDuZbA5nUhP64-21" value="" style="endArrow=classic;html=1;rounded=0;fontSize=12;startSize=8;endSize=8;curved=1;exitX=0.5;exitY=1;exitDx=0;exitDy=0;" edge="1" parent="1" source="gsGq_jREDuZbA5nUhP64-11">
          <mxGeometry relative="1" as="geometry">
            <mxPoint x="361" y="219" as="sourcePoint" />
            <mxPoint x="129" y="253" as="targetPoint" />
            <Array as="points">
              <mxPoint x="206" y="516" />
              <mxPoint x="78" y="530" />
              <mxPoint x="46" y="474" />
              <mxPoint x="6" y="377" />
              <mxPoint x="70" y="250" />
            </Array>
          </mxGeometry>
        </mxCell>
        <mxCell id="gsGq_jREDuZbA5nUhP64-23" value="" style="endArrow=classic;html=1;rounded=0;fontSize=12;startSize=8;endSize=8;curved=1;exitX=1;exitY=0.5;exitDx=0;exitDy=0;" edge="1" parent="1" source="gsGq_jREDuZbA5nUhP64-6">
          <mxGeometry width="50" height="50" relative="1" as="geometry">
            <mxPoint x="219" y="328" as="sourcePoint" />
            <mxPoint x="458" y="282" as="targetPoint" />
            <Array as="points">
              <mxPoint x="462" y="222" />
            </Array>
          </mxGeometry>
        </mxCell>
        <mxCell id="gsGq_jREDuZbA5nUhP64-26" style="edgeStyle=none;curved=1;rounded=0;orthogonalLoop=1;jettySize=auto;html=1;entryX=0.5;entryY=0;entryDx=0;entryDy=0;fontSize=12;startSize=8;endSize=8;" edge="1" parent="1" source="gsGq_jREDuZbA5nUhP64-24" target="gsGq_jREDuZbA5nUhP64-25">
          <mxGeometry relative="1" as="geometry" />
        </mxCell>
        <mxCell id="gsGq_jREDuZbA5nUhP64-24" value="Новый массив" style="shape=parallelogram;perimeter=parallelogramPerimeter;whiteSpace=wrap;html=1;fixedSize=1;" vertex="1" parent="1">
          <mxGeometry x="387" y="285" width="120" height="60" as="geometry" />
        </mxCell>
        <mxCell id="gsGq_jREDuZbA5nUhP64-25" value="конец" style="ellipse;whiteSpace=wrap;html=1;" vertex="1" parent="1">
          <mxGeometry x="366.5" y="373" width="161" height="67" as="geometry" />
        </mxCell>
      </root>
    </mxGraphModel>
  </diagram>
</mxfile>
